<svg xmlns="http://www.w3.org/2000/svg" width="18" height="18" viewBox="0 0 18 18" fill="none">
<path d="M8.64162 4.00696C8.59533 3.96254 8.53365 3.93774 8.4695 3.93774C8.40534 3.93774 8.34367 3.96254 8.29737 4.00696L2.56695 9.48167C2.54261 9.5049 2.52322 9.53281 2.50995 9.56373C2.49668 9.59465 2.48981 9.62794 2.48975 9.66159V14.7998C2.48975 15.0638 2.59458 15.3171 2.78119 15.5038C2.96781 15.6906 3.22094 15.7956 3.48495 15.7958H6.47625C6.5417 15.7958 6.60653 15.783 6.66702 15.7581C6.72752 15.7331 6.7825 15.6964 6.82881 15.6502C6.87513 15.6039 6.91187 15.549 6.93694 15.4885C6.96201 15.4281 6.97491 15.3632 6.97491 15.2978V11.0648C6.97482 11.0321 6.98118 10.9997 6.99363 10.9694C7.00609 10.9392 7.02439 10.9117 7.04748 10.8885C7.07058 10.8654 7.09802 10.847 7.12823 10.8345C7.15844 10.8219 7.19083 10.8155 7.22354 10.8155H9.71404C9.74675 10.8155 9.77914 10.8219 9.80935 10.8345C9.83956 10.847 9.867 10.8654 9.89009 10.8885C9.91319 10.9117 9.93149 10.9392 9.94394 10.9694C9.95639 10.9997 9.96276 11.0321 9.96266 11.0648V15.2978C9.96266 15.3632 9.97557 15.4281 10.0006 15.4885C10.0257 15.549 10.0624 15.6039 10.1088 15.6502C10.1551 15.6964 10.2101 15.7331 10.2706 15.7581C10.331 15.783 10.3959 15.7958 10.4613 15.7958H13.4505C13.7147 15.7958 13.9681 15.6908 14.155 15.5041C14.3418 15.3173 14.4469 15.064 14.4471 14.7998V9.66159C14.4472 9.62798 14.4405 9.5947 14.4274 9.56377C14.4142 9.53284 14.3949 9.50491 14.3706 9.48167L8.64162 4.00625V4.00696Z" fill="#98989B"/>
<path d="M15.7817 8.45465L13.4534 6.22765V2.84748C13.4534 2.71541 13.401 2.58875 13.3076 2.49537C13.2142 2.40198 13.0875 2.34952 12.9555 2.34952H11.4609C11.3288 2.34952 11.2022 2.40198 11.1088 2.49537C11.0154 2.58875 10.9629 2.71541 10.9629 2.84748V3.8434L9.16021 2.11931C8.99092 1.94931 8.74017 1.85156 8.46888 1.85156C8.19971 1.85156 7.94896 1.94931 7.78038 2.12002L1.15888 8.45465C1.06442 8.54352 1.00754 8.66516 0.999906 8.79462C0.992267 8.92409 1.03445 9.05158 1.1178 9.15094C1.16206 9.20192 1.21622 9.24337 1.277 9.27277C1.33778 9.30217 1.4039 9.3189 1.47135 9.32195C1.53879 9.32499 1.60616 9.31429 1.66934 9.2905C1.73252 9.2667 1.7902 9.2303 1.83888 9.18352L8.29817 3.01181C8.34455 2.96756 8.40619 2.94287 8.4703 2.94287C8.5344 2.94287 8.59604 2.96756 8.64242 3.01181L15.1024 9.18352C15.1975 9.27467 15.3248 9.32443 15.4565 9.3219C15.5882 9.31938 15.7136 9.26478 15.8051 9.17006C15.9963 8.97173 15.9808 8.6459 15.7817 8.45465Z" fill="#98989B"/>
</svg>